<svg xmlns="http://www.w3.org/2000/svg" width="64" height="64" fill="#dfe6e99c" viewBox="0 0 32 32"><g transform="translate(0 -1020.362)"><path style="line-height:normal;text-indent:0;text-align:start;text-decoration-line:none;text-decoration-style:solid;text-decoration-color:#000;text-transform:none;white-space:normal;isolation:auto;mix-blend-mode:normal;solid-color:#000;solid-opacity:1" d="m 13.05843,1024.3642 c -0.0396,10e-4 -0.079,0.01 -0.11719,0.018 -5.29105,1.5234 -8.93771,6.306 -8.94141,11.741 l 0,0 c -1e-5,6.7589 5.57478,12.239 12.42969,12.239 5.07653,0 9.6468,-3.0487 11.5332,-7.6958 0.15608,-0.3863 -0.20106,-0.7829 -0.60156,-0.668 -1.0422,0.3023 -2.12425,0.4568 -3.21094,0.459 -6.32306,0 -11.43164,-5.0313 -11.43164,-11.2409 0.003,-1.4275 0.28307,-2.8414 0.82422,-4.1663 0.13669,-0.3371 -0.1209,-0.7028 -0.48437,-0.6875 z m -1.33985,4.8519 0,0 c -10e-6,6.7588 5.57677,12.2409 12.43164,12.241 0.81065,0 1.6677,-0.082 2.46094,-0.2383 -1.92494,3.7645 -5.83644,6.1395 -10.18164,6.1429 -6.32309,0 -11.42969,-5.0273 -11.42969,-11.237 0.003,-4.6862 2.97045,-8.8068 7.26953,-10.4733 -0.3922,1.1752 -0.53777,2.5229 -0.55078,3.5647 z" color="#000" enable-background="accumulate" font-family="sans-serif" font-weight="400" overflow="visible" /><path style="line-height:normal;text-indent:0;text-align:start;text-decoration-line:none;text-decoration-style:solid;text-decoration-color:#000;text-transform:none;white-space:normal;isolation:auto;mix-blend-mode:normal;solid-color:#000;solid-opacity:1" fill-rule="evenodd" d="m 20.997238,1028.3614 a 0.50004994,0.50004994 0 0 0 -0.492188,0.5078 l 0,4.9864 a 0.50004994,0.50004994 0 1 0 1,0 l 0,-4.9864 a 0.50004994,0.50004994 0 0 0 -0.507812,-0.5078 z" color="#000" enable-background="accumulate" font-family="sans-serif" font-weight="400" overflow="visible"/><path style="line-height:normal;text-indent:0;text-align:start;text-decoration-line:none;text-decoration-style:solid;text-decoration-color:#000;text-transform:none;white-space:normal;isolation:auto;mix-blend-mode:normal;solid-color:#000;solid-opacity:1" fill-rule="evenodd" d="m 18.499191,1031.3614 a 0.50005,0.50005 0 0 0 -0.347657,0.8594 l 2.494141,2.4941 a 0.50005,0.50005 0 0 0 0.707031,0 l 2.496094,-2.4941 a 0.50005,0.50005 0 1 0 -0.707031,-0.707 l -2.142578,2.1406 -2.140625,-2.1406 a 0.50005,0.50005 0 0 0 -0.359375,-0.1524 z" color="#000" enable-background="accumulate" font-family="sans-serif" font-weight="400" overflow="visible"/></g></svg>